# xmcd
#
# Track frame offsets: 
#        150
#        19896
#        35909
#        52627
#        68105
#        85700
#        108014
#        122598
#        131582
#        155078
#
# Disc length: 2386 seconds
#
# Revision: 0
# Processed by: cddbd v1.5.2PL0 Copyright (c) Steve Scherf et al.
# Submitted via: ExactAudioCopy v1.1
#
DISCID=7a09500a
DTITLE=The John Bush Band - Somebody Tell Adina
DYEAR=2015
DGENRE=Blues
TTITLE0=It's Hot
TTITLE1=I Love Ya Honey
TTITLE2=So Much Sorrow
TTITLE3=Don't Bother Me
TTITLE4=Who's To Blame
TTITLE5=I Thought I Saw You
TTITLE6=You Know It
TTITLE7=Capt. Stormfield's Journey
TTITLE8=Hurt No More
TTITLE9=You Can't Hide Tomorrow
EXTD=
EXTT0=
EXTT1=
EXTT2=
EXTT3=
EXTT4=
EXTT5=
EXTT6=
EXTT7=
EXTT8=
EXTT9=
PLAYORDER=
